solid CATIA STL
  facet normal  -0.000000e+000  0.000000e+000  1.000000e+000
    outer loop
      vertex  3.700000e+001  1.500000e+001  3.000000e+000
      vertex  3.204580e+001  1.076525e+001  3.000000e+000
      vertex  3.306296e+001  9.365248e+000  3.000000e+000
    endloop
  endfacet
  facet normal  -0.000000e+000  0.000000e+000  1.000000e+000
    outer loop
      vertex  3.700000e+001  1.500000e+001  3.000000e+000
      vertex  3.040000e+001  1.130000e+001  3.000000e+000
      vertex  3.204580e+001  1.076525e+001  3.000000e+000
    endloop
  endfacet
  facet normal  0.000000e+000  0.000000e+000  1.000000e+000
    outer loop
      vertex  3.700000e+001  2.000000e+000  3.000000e+000
      vertex  3.700000e+001  1.500000e+001  3.000000e+000
      vertex  3.306296e+001  9.365248e+000  3.000000e+000
    endloop
  endfacet
  facet normal  0.000000e+000  0.000000e+000  1.000000e+000
    outer loop
      vertex  3.700000e+001  2.000000e+000  3.000000e+000
      vertex  3.306296e+001  9.365248e+000  3.000000e+000
      vertex  3.306296e+001  7.634752e+000  3.000000e+000
    endloop
  endfacet
  facet normal  0.000000e+000  0.000000e+000  1.000000e+000
    outer loop
      vertex  3.700000e+001  2.000000e+000  3.000000e+000
      vertex  3.306296e+001  7.634752e+000  3.000000e+000
      vertex  3.204580e+001  6.234752e+000  3.000000e+000
    endloop
  endfacet
  facet normal  0.000000e+000  0.000000e+000  1.000000e+000
    outer loop
      vertex  3.700000e+001  2.000000e+000  3.000000e+000
      vertex  3.204580e+001  6.234752e+000  3.000000e+000
      vertex  3.040000e+001  5.700000e+000  3.000000e+000
    endloop
  endfacet
  facet normal  0.000000e+000  0.000000e+000  9.999999e-001
    outer loop
      vertex  3.700000e+001  2.000000e+000  3.000000e+000
      vertex  3.040000e+001  5.700000e+000  3.000000e+000
      vertex  2.700000e+001  5.700000e+000  3.000000e+000
    endloop
  endfacet
  facet normal  0.000000e+000  0.000000e+000  1.000000e+000
    outer loop
      vertex  3.700000e+001  2.000000e+000  3.000000e+000
      vertex  2.700000e+001  5.700000e+000  3.000000e+000
      vertex  2.000000e+001  2.000000e+000  3.000000e+000
    endloop
  endfacet
  facet normal  0.000000e+000  0.000000e+000  1.000000e+000
    outer loop
      vertex  2.000000e+001  2.000000e+000  3.000000e+000
      vertex  2.700000e+001  5.700000e+000  3.000000e+000
      vertex  2.535420e+001  6.234752e+000  3.000000e+000
    endloop
  endfacet
  facet normal  0.000000e+000  0.000000e+000  1.000000e+000
    outer loop
      vertex  2.000000e+001  2.000000e+000  3.000000e+000
      vertex  2.535420e+001  6.234752e+000  3.000000e+000
      vertex  2.433704e+001  7.634752e+000  3.000000e+000
    endloop
  endfacet
  facet normal  0.000000e+000  -0.000000e+000  1.000000e+000
    outer loop
      vertex  2.000000e+001  2.000000e+000  3.000000e+000
      vertex  2.433704e+001  7.634752e+000  3.000000e+000
      vertex  2.433704e+001  9.365248e+000  3.000000e+000
    endloop
  endfacet
  facet normal  0.000000e+000  0.000000e+000  9.999999e-001
    outer loop
      vertex  2.000000e+001  2.000000e+000  3.000000e+000
      vertex  2.433704e+001  9.365248e+000  3.000000e+000
      vertex  2.000000e+001  1.500000e+001  3.000000e+000
    endloop
  endfacet
  facet normal  0.000000e+000  -0.000000e+000  1.000000e+000
    outer loop
      vertex  2.000000e+001  1.500000e+001  3.000000e+000
      vertex  2.433704e+001  9.365248e+000  3.000000e+000
      vertex  2.535420e+001  1.076525e+001  3.000000e+000
    endloop
  endfacet
  facet normal  0.000000e+000  -0.000000e+000  1.000000e+000
    outer loop
      vertex  2.000000e+001  1.500000e+001  3.000000e+000
      vertex  2.535420e+001  1.076525e+001  3.000000e+000
      vertex  2.700000e+001  1.130000e+001  3.000000e+000
    endloop
  endfacet
  facet normal  0.000000e+000  -0.000000e+000  9.999999e-001
    outer loop
      vertex  2.000000e+001  1.500000e+001  3.000000e+000
      vertex  2.700000e+001  1.130000e+001  3.000000e+000
      vertex  3.040000e+001  1.130000e+001  3.000000e+000
    endloop
  endfacet
  facet normal  0.000000e+000  -0.000000e+000  9.999999e-001
    outer loop
      vertex  2.000000e+001  1.500000e+001  3.000000e+000
      vertex  3.040000e+001  1.130000e+001  3.000000e+000
      vertex  3.700000e+001  1.500000e+001  3.000000e+000
    endloop
  endfacet
  facet normal  0.000000e+000  -0.000000e+000 -1.000000e+000
    outer loop
      vertex  3.040000e+001  5.700000e+000  0.000000e+000
      vertex  3.204580e+001  6.234752e+000  0.000000e+000
      vertex  4.000000e+001  0.000000e+000  0.000000e+000
    endloop
  endfacet
  facet normal  0.000000e+000  -0.000000e+000 -1.000000e+000
    outer loop
      vertex  3.204580e+001  6.234752e+000  0.000000e+000
      vertex  3.306296e+001  7.634752e+000  0.000000e+000
      vertex  4.000000e+001  0.000000e+000  0.000000e+000
    endloop
  endfacet
  facet normal  0.000000e+000  0.000000e+000 -1.000000e+000
    outer loop
      vertex  2.000000e+001  0.000000e+000  0.000000e+000
      vertex  2.000000e+001  1.700000e+001  0.000000e+000
      vertex  2.433704e+001  9.365248e+000  0.000000e+000
    endloop
  endfacet
  facet normal  0.000000e+000  -0.000000e+000 -1.000000e+000
    outer loop
      vertex  2.000000e+001  0.000000e+000  0.000000e+000
      vertex  2.433704e+001  9.365248e+000  0.000000e+000
      vertex  2.433704e+001  7.634752e+000  0.000000e+000
    endloop
  endfacet
  facet normal  0.000000e+000  -0.000000e+000 -1.000000e+000
    outer loop
      vertex  2.000000e+001  0.000000e+000  0.000000e+000
      vertex  2.433704e+001  7.634752e+000  0.000000e+000
      vertex  2.535420e+001  6.234752e+000  0.000000e+000
    endloop
  endfacet
  facet normal  0.000000e+000  -0.000000e+000 -1.000000e+000
    outer loop
      vertex  2.000000e+001  0.000000e+000  0.000000e+000
      vertex  2.535420e+001  6.234752e+000  0.000000e+000
      vertex  2.700000e+001  5.700000e+000  0.000000e+000
    endloop
  endfacet
  facet normal  0.000000e+000  -0.000000e+000 -1.000000e+000
    outer loop
      vertex  2.000000e+001  0.000000e+000  0.000000e+000
      vertex  2.700000e+001  5.700000e+000  0.000000e+000
      vertex  3.040000e+001  5.700000e+000  0.000000e+000
    endloop
  endfacet
  facet normal  0.000000e+000  -0.000000e+000 -1.000000e+000
    outer loop
      vertex  2.000000e+001  0.000000e+000  0.000000e+000
      vertex  3.040000e+001  5.700000e+000  0.000000e+000
      vertex  4.000000e+001  0.000000e+000  0.000000e+000
    endloop
  endfacet
  facet normal  -0.000000e+000  0.000000e+000 -1.000000e+000
    outer loop
      vertex  2.000000e+001  1.700000e+001  0.000000e+000
      vertex  4.000000e+001  1.700000e+001  0.000000e+000
      vertex  3.040000e+001  1.130000e+001  0.000000e+000
    endloop
  endfacet
  facet normal  0.000000e+000  0.000000e+000 -1.000000e+000
    outer loop
      vertex  2.000000e+001  1.700000e+001  0.000000e+000
      vertex  3.040000e+001  1.130000e+001  0.000000e+000
      vertex  2.700000e+001  1.130000e+001  0.000000e+000
    endloop
  endfacet
  facet normal  -0.000000e+000  0.000000e+000 -9.999999e-001
    outer loop
      vertex  2.000000e+001  1.700000e+001  0.000000e+000
      vertex  2.700000e+001  1.130000e+001  0.000000e+000
      vertex  2.535420e+001  1.076525e+001  0.000000e+000
    endloop
  endfacet
  facet normal  -0.000000e+000  0.000000e+000 -1.000000e+000
    outer loop
      vertex  2.000000e+001  1.700000e+001  0.000000e+000
      vertex  2.535420e+001  1.076525e+001  0.000000e+000
      vertex  2.433704e+001  9.365248e+000  0.000000e+000
    endloop
  endfacet
  facet normal  0.000000e+000  0.000000e+000 -1.000000e+000
    outer loop
      vertex  4.000000e+001  1.700000e+001  0.000000e+000
      vertex  4.000000e+001  0.000000e+000  0.000000e+000
      vertex  3.306296e+001  7.634752e+000  0.000000e+000
    endloop
  endfacet
  facet normal  0.000000e+000  0.000000e+000 -1.000000e+000
    outer loop
      vertex  4.000000e+001  1.700000e+001  0.000000e+000
      vertex  3.306296e+001  7.634752e+000  0.000000e+000
      vertex  3.306296e+001  9.365248e+000  0.000000e+000
    endloop
  endfacet
  facet normal  0.000000e+000  0.000000e+000 -1.000000e+000
    outer loop
      vertex  4.000000e+001  1.700000e+001  0.000000e+000
      vertex  3.306296e+001  9.365248e+000  0.000000e+000
      vertex  3.204580e+001  1.076525e+001  0.000000e+000
    endloop
  endfacet
  facet normal  0.000000e+000  0.000000e+000 -1.000000e+000
    outer loop
      vertex  4.000000e+001  1.700000e+001  0.000000e+000
      vertex  3.204580e+001  1.076525e+001  0.000000e+000
      vertex  3.040000e+001  1.130000e+001  0.000000e+000
    endloop
  endfacet
  facet normal  0.000000e+000 -1.000000e+000  0.000000e+000
    outer loop
      vertex  2.700000e+001  1.130000e+001  3.000000e+000
      vertex  2.700000e+001  1.130000e+001  0.000000e+000
      vertex  3.040000e+001  1.130000e+001  3.000000e+000
    endloop
  endfacet
  facet normal  0.000000e+000 -1.000000e+000  -0.000000e+000
    outer loop
      vertex  3.040000e+001  1.130000e+001  3.000000e+000
      vertex  2.700000e+001  1.130000e+001  0.000000e+000
      vertex  3.040000e+001  1.130000e+001  0.000000e+000
    endloop
  endfacet
  facet normal -8.090172e-001 -5.877849e-001  -0.000000e+000
    outer loop
      vertex  3.306296e+001  9.365248e+000  0.000000e+000
      vertex  3.204580e+001  1.076525e+001  3.000000e+000
      vertex  3.204580e+001  1.076525e+001  0.000000e+000
    endloop
  endfacet
  facet normal -3.090171e-001 -9.510565e-001  0.000000e+000
    outer loop
      vertex  3.204580e+001  1.076525e+001  0.000000e+000
      vertex  3.204580e+001  1.076525e+001  3.000000e+000
      vertex  3.040000e+001  1.130000e+001  3.000000e+000
    endloop
  endfacet
  facet normal -3.090171e-001 -9.510565e-001  -0.000000e+000
    outer loop
      vertex  3.204580e+001  1.076525e+001  0.000000e+000
      vertex  3.040000e+001  1.130000e+001  3.000000e+000
      vertex  3.040000e+001  1.130000e+001  0.000000e+000
    endloop
  endfacet
  facet normal -8.090172e-001 -5.877849e-001  0.000000e+000
    outer loop
      vertex  3.204580e+001  1.076525e+001  3.000000e+000
      vertex  3.306296e+001  9.365248e+000  0.000000e+000
      vertex  3.306296e+001  9.365248e+000  3.000000e+000
    endloop
  endfacet
  facet normal -1.000000e+000  0.000000e+000  -0.000000e+000
    outer loop
      vertex  3.306296e+001  9.365248e+000  3.000000e+000
      vertex  3.306296e+001  9.365248e+000  0.000000e+000
      vertex  3.306296e+001  7.634752e+000  0.000000e+000
    endloop
  endfacet
  facet normal -1.000000e+000  0.000000e+000  0.000000e+000
    outer loop
      vertex  3.306296e+001  9.365248e+000  3.000000e+000
      vertex  3.306296e+001  7.634752e+000  0.000000e+000
      vertex  3.306296e+001  7.634752e+000  3.000000e+000
    endloop
  endfacet
  facet normal -8.090173e-001  5.877848e-001  0.000000e+000
    outer loop
      vertex  3.306296e+001  7.634752e+000  3.000000e+000
      vertex  3.306296e+001  7.634752e+000  0.000000e+000
      vertex  3.204580e+001  6.234752e+000  0.000000e+000
    endloop
  endfacet
  facet normal -8.090173e-001  5.877848e-001  0.000000e+000
    outer loop
      vertex  3.306296e+001  7.634752e+000  3.000000e+000
      vertex  3.204580e+001  6.234752e+000  0.000000e+000
      vertex  3.204580e+001  6.234752e+000  3.000000e+000
    endloop
  endfacet
  facet normal -3.090168e-001  9.510565e-001  0.000000e+000
    outer loop
      vertex  3.204580e+001  6.234752e+000  3.000000e+000
      vertex  3.204580e+001  6.234752e+000  0.000000e+000
      vertex  3.040000e+001  5.700000e+000  0.000000e+000
    endloop
  endfacet
  facet normal -3.090168e-001  9.510565e-001  0.000000e+000
    outer loop
      vertex  3.204580e+001  6.234752e+000  3.000000e+000
      vertex  3.040000e+001  5.700000e+000  0.000000e+000
      vertex  3.040000e+001  5.700000e+000  3.000000e+000
    endloop
  endfacet
  facet normal  0.000000e+000  1.000000e+000  0.000000e+000
    outer loop
      vertex  2.700000e+001  5.700000e+000  3.000000e+000
      vertex  3.040000e+001  5.700000e+000  3.000000e+000
      vertex  2.700000e+001  5.700000e+000  0.000000e+000
    endloop
  endfacet
  facet normal  0.000000e+000  1.000000e+000  0.000000e+000
    outer loop
      vertex  2.700000e+001  5.700000e+000  0.000000e+000
      vertex  3.040000e+001  5.700000e+000  3.000000e+000
      vertex  3.040000e+001  5.700000e+000  0.000000e+000
    endloop
  endfacet
  facet normal  8.090173e-001  5.877848e-001  0.000000e+000
    outer loop
      vertex  2.433704e+001  7.634752e+000  0.000000e+000
      vertex  2.535420e+001  6.234752e+000  3.000000e+000
      vertex  2.535420e+001  6.234752e+000  0.000000e+000
    endloop
  endfacet
  facet normal  3.090168e-001  9.510565e-001  -0.000000e+000
    outer loop
      vertex  2.535420e+001  6.234752e+000  0.000000e+000
      vertex  2.535420e+001  6.234752e+000  3.000000e+000
      vertex  2.700000e+001  5.700000e+000  3.000000e+000
    endloop
  endfacet
  facet normal  3.090168e-001  9.510565e-001  0.000000e+000
    outer loop
      vertex  2.535420e+001  6.234752e+000  0.000000e+000
      vertex  2.700000e+001  5.700000e+000  3.000000e+000
      vertex  2.700000e+001  5.700000e+000  0.000000e+000
    endloop
  endfacet
  facet normal  8.090173e-001  5.877848e-001  -0.000000e+000
    outer loop
      vertex  2.535420e+001  6.234752e+000  3.000000e+000
      vertex  2.433704e+001  7.634752e+000  0.000000e+000
      vertex  2.433704e+001  7.634752e+000  3.000000e+000
    endloop
  endfacet
  facet normal  1.000000e+000  0.000000e+000  0.000000e+000
    outer loop
      vertex  2.433704e+001  7.634752e+000  3.000000e+000
      vertex  2.433704e+001  7.634752e+000  0.000000e+000
      vertex  2.433704e+001  9.365248e+000  0.000000e+000
    endloop
  endfacet
  facet normal  1.000000e+000  0.000000e+000  -0.000000e+000
    outer loop
      vertex  2.433704e+001  7.634752e+000  3.000000e+000
      vertex  2.433704e+001  9.365248e+000  0.000000e+000
      vertex  2.433704e+001  9.365248e+000  3.000000e+000
    endloop
  endfacet
  facet normal  8.090172e-001 -5.877849e-001  0.000000e+000
    outer loop
      vertex  2.433704e+001  9.365248e+000  3.000000e+000
      vertex  2.433704e+001  9.365248e+000  0.000000e+000
      vertex  2.535420e+001  1.076525e+001  0.000000e+000
    endloop
  endfacet
  facet normal  8.090172e-001 -5.877849e-001  0.000000e+000
    outer loop
      vertex  2.433704e+001  9.365248e+000  3.000000e+000
      vertex  2.535420e+001  1.076525e+001  0.000000e+000
      vertex  2.535420e+001  1.076525e+001  3.000000e+000
    endloop
  endfacet
  facet normal  3.090171e-001 -9.510565e-001  0.000000e+000
    outer loop
      vertex  2.535420e+001  1.076525e+001  3.000000e+000
      vertex  2.535420e+001  1.076525e+001  0.000000e+000
      vertex  2.700000e+001  1.130000e+001  0.000000e+000
    endloop
  endfacet
  facet normal  3.090171e-001 -9.510565e-001  0.000000e+000
    outer loop
      vertex  2.535420e+001  1.076525e+001  3.000000e+000
      vertex  2.700000e+001  1.130000e+001  0.000000e+000
      vertex  2.700000e+001  1.130000e+001  3.000000e+000
    endloop
  endfacet
  facet normal -1.000000e+000  -0.000000e+000  0.000000e+000
    outer loop
      vertex  3.700000e+001  2.000000e+000  2.000000e+001
      vertex  3.700000e+001  7.634752e+000  1.566296e+001
      vertex  3.700000e+001  6.234752e+000  1.464580e+001
    endloop
  endfacet
  facet normal -1.000000e+000  0.000000e+000  0.000000e+000
    outer loop
      vertex  3.700000e+001  2.000000e+000  3.000000e+000
      vertex  3.700000e+001  2.000000e+000  2.000000e+001
      vertex  3.700000e+001  6.234752e+000  1.464580e+001
    endloop
  endfacet
  facet normal -9.999999e-001  0.000000e+000  0.000000e+000
    outer loop
      vertex  3.700000e+001  2.000000e+000  3.000000e+000
      vertex  3.700000e+001  6.234752e+000  1.464580e+001
      vertex  3.700000e+001  5.700000e+000  1.300000e+001
    endloop
  endfacet
  facet normal -9.999999e-001  0.000000e+000  -0.000000e+000
    outer loop
      vertex  3.700000e+001  2.000000e+000  3.000000e+000
      vertex  3.700000e+001  5.700000e+000  1.300000e+001
      vertex  3.700000e+001  5.700000e+000  9.600000e+000
    endloop
  endfacet
  facet normal -1.000000e+000  0.000000e+000  -0.000000e+000
    outer loop
      vertex  3.700000e+001  2.000000e+000  3.000000e+000
      vertex  3.700000e+001  5.700000e+000  9.600000e+000
      vertex  3.700000e+001  6.234752e+000  7.954201e+000
    endloop
  endfacet
  facet normal -1.000000e+000  0.000000e+000  -0.000000e+000
    outer loop
      vertex  3.700000e+001  2.000000e+000  3.000000e+000
      vertex  3.700000e+001  6.234752e+000  7.954201e+000
      vertex  3.700000e+001  7.634752e+000  6.937042e+000
    endloop
  endfacet
  facet normal -9.999999e-001  0.000000e+000  -0.000000e+000
    outer loop
      vertex  3.700000e+001  2.000000e+000  3.000000e+000
      vertex  3.700000e+001  7.634752e+000  6.937042e+000
      vertex  3.700000e+001  9.365248e+000  6.937042e+000
    endloop
  endfacet
  facet normal -1.000000e+000  0.000000e+000  -0.000000e+000
    outer loop
      vertex  3.700000e+001  2.000000e+000  3.000000e+000
      vertex  3.700000e+001  9.365248e+000  6.937042e+000
      vertex  3.700000e+001  1.500000e+001  3.000000e+000
    endloop
  endfacet
  facet normal -1.000000e+000  0.000000e+000  0.000000e+000
    outer loop
      vertex  3.700000e+001  1.500000e+001  3.000000e+000
      vertex  3.700000e+001  9.365248e+000  6.937042e+000
      vertex  3.700000e+001  1.076525e+001  7.954201e+000
    endloop
  endfacet
  facet normal -1.000000e+000  0.000000e+000  0.000000e+000
    outer loop
      vertex  3.700000e+001  1.500000e+001  3.000000e+000
      vertex  3.700000e+001  1.076525e+001  7.954201e+000
      vertex  3.700000e+001  1.130000e+001  9.600000e+000
    endloop
  endfacet
  facet normal -9.999999e-001  0.000000e+000  0.000000e+000
    outer loop
      vertex  3.700000e+001  1.500000e+001  3.000000e+000
      vertex  3.700000e+001  1.130000e+001  9.600000e+000
      vertex  3.700000e+001  1.130000e+001  1.300000e+001
    endloop
  endfacet
  facet normal -1.000000e+000  0.000000e+000  0.000000e+000
    outer loop
      vertex  3.700000e+001  1.500000e+001  3.000000e+000
      vertex  3.700000e+001  1.130000e+001  1.300000e+001
      vertex  3.700000e+001  1.500000e+001  2.000000e+001
    endloop
  endfacet
  facet normal -1.000000e+000  0.000000e+000  0.000000e+000
    outer loop
      vertex  3.700000e+001  1.500000e+001  2.000000e+001
      vertex  3.700000e+001  1.130000e+001  1.300000e+001
      vertex  3.700000e+001  1.076525e+001  1.464580e+001
    endloop
  endfacet
  facet normal -1.000000e+000  0.000000e+000  0.000000e+000
    outer loop
      vertex  3.700000e+001  1.500000e+001  2.000000e+001
      vertex  3.700000e+001  1.076525e+001  1.464580e+001
      vertex  3.700000e+001  9.365248e+000  1.566296e+001
    endloop
  endfacet
  facet normal -1.000000e+000  0.000000e+000  0.000000e+000
    outer loop
      vertex  3.700000e+001  1.500000e+001  2.000000e+001
      vertex  3.700000e+001  9.365248e+000  1.566296e+001
      vertex  3.700000e+001  7.634752e+000  1.566296e+001
    endloop
  endfacet
  facet normal -9.999999e-001  0.000000e+000  0.000000e+000
    outer loop
      vertex  3.700000e+001  1.500000e+001  2.000000e+001
      vertex  3.700000e+001  7.634752e+000  1.566296e+001
      vertex  3.700000e+001  2.000000e+000  2.000000e+001
    endloop
  endfacet
  facet normal  1.000000e+000  0.000000e+000  0.000000e+000
    outer loop
      vertex  4.000000e+001  0.000000e+000  0.000000e+000
      vertex  4.000000e+001  6.234752e+000  7.954201e+000
      vertex  4.000000e+001  5.700000e+000  9.600000e+000
    endloop
  endfacet
  facet normal  1.000000e+000  0.000000e+000  0.000000e+000
    outer loop
      vertex  4.000000e+001  0.000000e+000  0.000000e+000
      vertex  4.000000e+001  7.634752e+000  6.937042e+000
      vertex  4.000000e+001  6.234752e+000  7.954201e+000
    endloop
  endfacet
  facet normal  1.000000e+000  0.000000e+000  -0.000000e+000
    outer loop
      vertex  4.000000e+001 -5.329071e-015  2.000000e+001
      vertex  4.000000e+001  0.000000e+000  0.000000e+000
      vertex  4.000000e+001  5.700000e+000  9.600000e+000
    endloop
  endfacet
  facet normal  1.000000e+000  0.000000e+000  -0.000000e+000
    outer loop
      vertex  4.000000e+001 -5.329071e-015  2.000000e+001
      vertex  4.000000e+001  5.700000e+000  9.600000e+000
      vertex  4.000000e+001  5.700000e+000  1.300000e+001
    endloop
  endfacet
  facet normal  1.000000e+000  0.000000e+000  -0.000000e+000
    outer loop
      vertex  4.000000e+001 -5.329071e-015  2.000000e+001
      vertex  4.000000e+001  5.700000e+000  1.300000e+001
      vertex  4.000000e+001  6.234752e+000  1.464580e+001
    endloop
  endfacet
  facet normal  1.000000e+000  0.000000e+000  -0.000000e+000
    outer loop
      vertex  4.000000e+001 -5.329071e-015  2.000000e+001
      vertex  4.000000e+001  6.234752e+000  1.464580e+001
      vertex  4.000000e+001  7.634752e+000  1.566296e+001
    endloop
  endfacet
  facet normal  1.000000e+000  0.000000e+000  -0.000000e+000
    outer loop
      vertex  4.000000e+001 -5.329071e-015  2.000000e+001
      vertex  4.000000e+001  7.634752e+000  1.566296e+001
      vertex  4.000000e+001  9.365248e+000  1.566296e+001
    endloop
  endfacet
  facet normal  1.000000e+000  0.000000e+000  -0.000000e+000
    outer loop
      vertex  4.000000e+001 -5.329071e-015  2.000000e+001
      vertex  4.000000e+001  9.365248e+000  1.566296e+001
      vertex  4.000000e+001  1.700000e+001  2.000000e+001
    endloop
  endfacet
  facet normal  1.000000e+000  -0.000000e+000  0.000000e+000
    outer loop
      vertex  4.000000e+001  1.700000e+001  2.000000e+001
      vertex  4.000000e+001  9.365248e+000  1.566296e+001
      vertex  4.000000e+001  1.076525e+001  1.464580e+001
    endloop
  endfacet
  facet normal  1.000000e+000  -0.000000e+000  0.000000e+000
    outer loop
      vertex  4.000000e+001  1.700000e+001  2.000000e+001
      vertex  4.000000e+001  1.076525e+001  1.464580e+001
      vertex  4.000000e+001  1.130000e+001  1.300000e+001
    endloop
  endfacet
  facet normal  1.000000e+000  -0.000000e+000  0.000000e+000
    outer loop
      vertex  4.000000e+001  1.700000e+001  2.000000e+001
      vertex  4.000000e+001  1.130000e+001  1.300000e+001
      vertex  4.000000e+001  1.130000e+001  9.600000e+000
    endloop
  endfacet
  facet normal  1.000000e+000  -0.000000e+000  0.000000e+000
    outer loop
      vertex  4.000000e+001  1.700000e+001  2.000000e+001
      vertex  4.000000e+001  1.130000e+001  9.600000e+000
      vertex  4.000000e+001  1.700000e+001  0.000000e+000
    endloop
  endfacet
  facet normal  9.999999e-001  0.000000e+000  0.000000e+000
    outer loop
      vertex  4.000000e+001  1.700000e+001  0.000000e+000
      vertex  4.000000e+001  1.130000e+001  9.600000e+000
      vertex  4.000000e+001  1.076525e+001  7.954201e+000
    endloop
  endfacet
  facet normal  1.000000e+000  0.000000e+000  0.000000e+000
    outer loop
      vertex  4.000000e+001  1.700000e+001  0.000000e+000
      vertex  4.000000e+001  1.076525e+001  7.954201e+000
      vertex  4.000000e+001  9.365248e+000  6.937042e+000
    endloop
  endfacet
  facet normal  1.000000e+000  0.000000e+000  0.000000e+000
    outer loop
      vertex  4.000000e+001  1.700000e+001  0.000000e+000
      vertex  4.000000e+001  9.365248e+000  6.937042e+000
      vertex  4.000000e+001  7.634752e+000  6.937042e+000
    endloop
  endfacet
  facet normal  1.000000e+000  0.000000e+000  0.000000e+000
    outer loop
      vertex  4.000000e+001  1.700000e+001  0.000000e+000
      vertex  4.000000e+001  7.634752e+000  6.937042e+000
      vertex  4.000000e+001  0.000000e+000  0.000000e+000
    endloop
  endfacet
  facet normal  0.000000e+000  1.000000e+000  -0.000000e+000
    outer loop
      vertex  4.000000e+001  5.700000e+000  1.300000e+001
      vertex  4.000000e+001  5.700000e+000  9.600000e+000
      vertex  3.700000e+001  5.700000e+000  1.300000e+001
    endloop
  endfacet
  facet normal  0.000000e+000  1.000000e+000  0.000000e+000
    outer loop
      vertex  3.700000e+001  5.700000e+000  1.300000e+001
      vertex  4.000000e+001  5.700000e+000  9.600000e+000
      vertex  3.700000e+001  5.700000e+000  9.600000e+000
    endloop
  endfacet
  facet normal  -0.000000e+000  5.877852e-001  8.090171e-001
    outer loop
      vertex  4.000000e+001  7.634752e+000  6.937042e+000
      vertex  3.700000e+001  6.234752e+000  7.954201e+000
      vertex  4.000000e+001  6.234752e+000  7.954201e+000
    endloop
  endfacet
  facet normal  0.000000e+000  9.510565e-001  3.090169e-001
    outer loop
      vertex  4.000000e+001  6.234752e+000  7.954201e+000
      vertex  3.700000e+001  6.234752e+000  7.954201e+000
      vertex  3.700000e+001  5.700000e+000  9.600000e+000
    endloop
  endfacet
  facet normal  -0.000000e+000  9.510565e-001  3.090169e-001
    outer loop
      vertex  4.000000e+001  6.234752e+000  7.954201e+000
      vertex  3.700000e+001  5.700000e+000  9.600000e+000
      vertex  4.000000e+001  5.700000e+000  9.600000e+000
    endloop
  endfacet
  facet normal  0.000000e+000  5.877852e-001  8.090171e-001
    outer loop
      vertex  3.700000e+001  6.234752e+000  7.954201e+000
      vertex  4.000000e+001  7.634752e+000  6.937042e+000
      vertex  3.700000e+001  7.634752e+000  6.937042e+000
    endloop
  endfacet
  facet normal  0.000000e+000  0.000000e+000  1.000000e+000
    outer loop
      vertex  3.700000e+001  7.634752e+000  6.937042e+000
      vertex  4.000000e+001  7.634752e+000  6.937042e+000
      vertex  4.000000e+001  9.365248e+000  6.937042e+000
    endloop
  endfacet
  facet normal  0.000000e+000  0.000000e+000  1.000000e+000
    outer loop
      vertex  3.700000e+001  7.634752e+000  6.937042e+000
      vertex  4.000000e+001  9.365248e+000  6.937042e+000
      vertex  3.700000e+001  9.365248e+000  6.937042e+000
    endloop
  endfacet
  facet normal  0.000000e+000 -5.877854e-001  8.090169e-001
    outer loop
      vertex  3.700000e+001  9.365248e+000  6.937042e+000
      vertex  4.000000e+001  9.365248e+000  6.937042e+000
      vertex  4.000000e+001  1.076525e+001  7.954201e+000
    endloop
  endfacet
  facet normal  0.000000e+000 -5.877854e-001  8.090169e-001
    outer loop
      vertex  3.700000e+001  9.365248e+000  6.937042e+000
      vertex  4.000000e+001  1.076525e+001  7.954201e+000
      vertex  3.700000e+001  1.076525e+001  7.954201e+000
    endloop
  endfacet
  facet normal  0.000000e+000 -9.510565e-001  3.090172e-001
    outer loop
      vertex  3.700000e+001  1.076525e+001  7.954201e+000
      vertex  4.000000e+001  1.076525e+001  7.954201e+000
      vertex  4.000000e+001  1.130000e+001  9.600000e+000
    endloop
  endfacet
  facet normal  0.000000e+000 -9.510565e-001  3.090172e-001
    outer loop
      vertex  3.700000e+001  1.076525e+001  7.954201e+000
      vertex  4.000000e+001  1.130000e+001  9.600000e+000
      vertex  3.700000e+001  1.130000e+001  9.600000e+000
    endloop
  endfacet
  facet normal  0.000000e+000 -1.000000e+000  0.000000e+000
    outer loop
      vertex  4.000000e+001  1.130000e+001  1.300000e+001
      vertex  3.700000e+001  1.130000e+001  1.300000e+001
      vertex  4.000000e+001  1.130000e+001  9.600000e+000
    endloop
  endfacet
  facet normal  0.000000e+000 -1.000000e+000  0.000000e+000
    outer loop
      vertex  4.000000e+001  1.130000e+001  9.600000e+000
      vertex  3.700000e+001  1.130000e+001  1.300000e+001
      vertex  3.700000e+001  1.130000e+001  9.600000e+000
    endloop
  endfacet
  facet normal  0.000000e+000 -5.877854e-001 -8.090169e-001
    outer loop
      vertex  4.000000e+001  9.365248e+000  1.566296e+001
      vertex  3.700000e+001  1.076525e+001  1.464580e+001
      vertex  4.000000e+001  1.076525e+001  1.464580e+001
    endloop
  endfacet
  facet normal  -0.000000e+000 -9.510564e-001 -3.090172e-001
    outer loop
      vertex  4.000000e+001  1.076525e+001  1.464580e+001
      vertex  3.700000e+001  1.076525e+001  1.464580e+001
      vertex  3.700000e+001  1.130000e+001  1.300000e+001
    endloop
  endfacet
  facet normal  0.000000e+000 -9.510564e-001 -3.090172e-001
    outer loop
      vertex  4.000000e+001  1.076525e+001  1.464580e+001
      vertex  3.700000e+001  1.130000e+001  1.300000e+001
      vertex  4.000000e+001  1.130000e+001  1.300000e+001
    endloop
  endfacet
  facet normal  -0.000000e+000 -5.877854e-001 -8.090169e-001
    outer loop
      vertex  3.700000e+001  1.076525e+001  1.464580e+001
      vertex  4.000000e+001  9.365248e+000  1.566296e+001
      vertex  3.700000e+001  9.365248e+000  1.566296e+001
    endloop
  endfacet
  facet normal  0.000000e+000  0.000000e+000 -1.000000e+000
    outer loop
      vertex  3.700000e+001  9.365248e+000  1.566296e+001
      vertex  4.000000e+001  9.365248e+000  1.566296e+001
      vertex  4.000000e+001  7.634752e+000  1.566296e+001
    endloop
  endfacet
  facet normal  0.000000e+000  0.000000e+000 -1.000000e+000
    outer loop
      vertex  3.700000e+001  9.365248e+000  1.566296e+001
      vertex  4.000000e+001  7.634752e+000  1.566296e+001
      vertex  3.700000e+001  7.634752e+000  1.566296e+001
    endloop
  endfacet
  facet normal  0.000000e+000  5.877852e-001 -8.090171e-001
    outer loop
      vertex  3.700000e+001  7.634752e+000  1.566296e+001
      vertex  4.000000e+001  7.634752e+000  1.566296e+001
      vertex  4.000000e+001  6.234752e+000  1.464580e+001
    endloop
  endfacet
  facet normal  0.000000e+000  5.877852e-001 -8.090171e-001
    outer loop
      vertex  3.700000e+001  7.634752e+000  1.566296e+001
      vertex  4.000000e+001  6.234752e+000  1.464580e+001
      vertex  3.700000e+001  6.234752e+000  1.464580e+001
    endloop
  endfacet
  facet normal  0.000000e+000  9.510565e-001 -3.090170e-001
    outer loop
      vertex  3.700000e+001  6.234752e+000  1.464580e+001
      vertex  4.000000e+001  6.234752e+000  1.464580e+001
      vertex  4.000000e+001  5.700000e+000  1.300000e+001
    endloop
  endfacet
  facet normal  0.000000e+000  9.510565e-001 -3.090170e-001
    outer loop
      vertex  3.700000e+001  6.234752e+000  1.464580e+001
      vertex  4.000000e+001  5.700000e+000  1.300000e+001
      vertex  3.700000e+001  5.700000e+000  1.300000e+001
    endloop
  endfacet
  facet normal  0.000000e+000 -1.000000e+000  0.000000e+000
    outer loop
      vertex  2.000000e+001  0.000000e+000  0.000000e+000
      vertex  4.000000e+001  0.000000e+000  0.000000e+000
      vertex  2.000000e+001  0.000000e+000  3.000000e+000
    endloop
  endfacet
  facet normal -3.996803e-017 -1.000000e+000 -2.664535e-016
    outer loop
      vertex  2.000000e+001  0.000000e+000  3.000000e+000
      vertex  4.000000e+001  0.000000e+000  0.000000e+000
      vertex  4.000000e+001 -5.329071e-015  2.000000e+001
    endloop
  endfacet
  facet normal -1.776357e-015 -1.000000e+000  1.776357e-015
    outer loop
      vertex  2.000000e+001  0.000000e+000  3.000000e+000
      vertex  4.000000e+001 -5.329071e-015  2.000000e+001
      vertex  3.700000e+001  0.000000e+000  2.000000e+001
    endloop
  endfacet
  facet normal  0.000000e+000  1.000000e+000  -0.000000e+000
    outer loop
      vertex  3.700000e+001  2.000000e+000  2.000000e+001
      vertex  3.700000e+001  2.000000e+000  3.000000e+000
      vertex  2.000000e+001  2.000000e+000  3.000000e+000
    endloop
  endfacet
  facet normal -7.071068e-001  0.000000e+000  7.071068e-001
    outer loop
      vertex  3.700000e+001  0.000000e+000  2.000000e+001
      vertex  3.700000e+001  2.000000e+000  2.000000e+001
      vertex  2.000000e+001  0.000000e+000  3.000000e+000
    endloop
  endfacet
  facet normal -7.071068e-001  0.000000e+000  7.071068e-001
    outer loop
      vertex  2.000000e+001  0.000000e+000  3.000000e+000
      vertex  3.700000e+001  2.000000e+000  2.000000e+001
      vertex  2.000000e+001  2.000000e+000  3.000000e+000
    endloop
  endfacet
  facet normal  -0.000000e+000  0.000000e+000  1.000000e+000
    outer loop
      vertex  3.700000e+001  2.000000e+000  2.000000e+001
      vertex  3.700000e+001  0.000000e+000  2.000000e+001
      vertex  4.000000e+001 -5.329071e-015  2.000000e+001
    endloop
  endfacet
  facet normal  -0.000000e+000  0.000000e+000  1.000000e+000
    outer loop
      vertex  4.000000e+001  1.700000e+001  2.000000e+001
      vertex  3.700000e+001  1.700000e+001  2.000000e+001
      vertex  4.000000e+001 -5.329071e-015  2.000000e+001
    endloop
  endfacet
  facet normal  0.000000e+000  0.000000e+000  1.000000e+000
    outer loop
      vertex  4.000000e+001 -5.329071e-015  2.000000e+001
      vertex  3.700000e+001  1.700000e+001  2.000000e+001
      vertex  3.700000e+001  1.500000e+001  2.000000e+001
    endloop
  endfacet
  facet normal  0.000000e+000  0.000000e+000  1.000000e+000
    outer loop
      vertex  4.000000e+001 -5.329071e-015  2.000000e+001
      vertex  3.700000e+001  1.500000e+001  2.000000e+001
      vertex  3.700000e+001  2.000000e+000  2.000000e+001
    endloop
  endfacet
  facet normal -1.000000e+000  0.000000e+000  0.000000e+000
    outer loop
      vertex  2.000000e+001  1.700000e+001  0.000000e+000
      vertex  2.000000e+001  0.000000e+000  0.000000e+000
      vertex  2.000000e+001  0.000000e+000  3.000000e+000
    endloop
  endfacet
  facet normal -1.000000e+000  0.000000e+000  0.000000e+000
    outer loop
      vertex  2.000000e+001  1.700000e+001  0.000000e+000
      vertex  2.000000e+001  0.000000e+000  3.000000e+000
      vertex  2.000000e+001  2.000000e+000  3.000000e+000
    endloop
  endfacet
  facet normal -1.000000e+000  0.000000e+000  0.000000e+000
    outer loop
      vertex  2.000000e+001  1.700000e+001  0.000000e+000
      vertex  2.000000e+001  2.000000e+000  3.000000e+000
      vertex  2.000000e+001  1.500000e+001  3.000000e+000
    endloop
  endfacet
  facet normal -1.000000e+000  0.000000e+000  0.000000e+000
    outer loop
      vertex  2.000000e+001  1.700000e+001  0.000000e+000
      vertex  2.000000e+001  1.500000e+001  3.000000e+000
      vertex  2.000000e+001  1.700000e+001  3.000000e+000
    endloop
  endfacet
  facet normal  0.000000e+000  1.000000e+000  0.000000e+000
    outer loop
      vertex  4.000000e+001  1.700000e+001  0.000000e+000
      vertex  2.000000e+001  1.700000e+001  0.000000e+000
      vertex  4.000000e+001  1.700000e+001  2.000000e+001
    endloop
  endfacet
  facet normal  0.000000e+000  1.000000e+000  0.000000e+000
    outer loop
      vertex  4.000000e+001  1.700000e+001  2.000000e+001
      vertex  2.000000e+001  1.700000e+001  0.000000e+000
      vertex  2.000000e+001  1.700000e+001  3.000000e+000
    endloop
  endfacet
  facet normal  0.000000e+000  1.000000e+000  0.000000e+000
    outer loop
      vertex  4.000000e+001  1.700000e+001  2.000000e+001
      vertex  2.000000e+001  1.700000e+001  3.000000e+000
      vertex  3.700000e+001  1.700000e+001  2.000000e+001
    endloop
  endfacet
  facet normal  0.000000e+000 -1.000000e+000  0.000000e+000
    outer loop
      vertex  2.000000e+001  1.500000e+001  3.000000e+000
      vertex  3.700000e+001  1.500000e+001  3.000000e+000
      vertex  3.700000e+001  1.500000e+001  2.000000e+001
    endloop
  endfacet
  facet normal -7.071068e-001  0.000000e+000  7.071068e-001
    outer loop
      vertex  3.700000e+001  1.500000e+001  2.000000e+001
      vertex  3.700000e+001  1.700000e+001  2.000000e+001
      vertex  2.000000e+001  1.500000e+001  3.000000e+000
    endloop
  endfacet
  facet normal -7.071068e-001  0.000000e+000  7.071068e-001
    outer loop
      vertex  2.000000e+001  1.500000e+001  3.000000e+000
      vertex  3.700000e+001  1.700000e+001  2.000000e+001
      vertex  2.000000e+001  1.700000e+001  3.000000e+000
    endloop
  endfacet
endsolid CATIA STL
